<?xml version="1.0" encoding="UTF-8" standalone="no"?>
<!-- Created with Inkscape (http://www.inkscape.org/) -->

<svg
   width="512"
   height="512"
   viewBox="0 0 512 512"
   version="1.1"
   id="svg5"
   xml:space="preserve"
   inkscape:version="1.2.2 (b0a8486541, 2022-12-01)"
   sodipodi:docname="plugin_logo.svg"
   inkscape:export-filename="plugin_logo.png"
   inkscape:export-xdpi="24"
   inkscape:export-ydpi="24"
   xmlns:inkscape="http://www.inkscape.org/namespaces/inkscape"
   xmlns:sodipodi="http://sodipodi.sourceforge.net/DTD/sodipodi-0.dtd"
   xmlns="http://www.w3.org/2000/svg"
   xmlns:svg="http://www.w3.org/2000/svg"><sodipodi:namedview
     id="namedview7"
     pagecolor="#505050"
     bordercolor="#eeeeee"
     borderopacity="1"
     inkscape:showpageshadow="0"
     inkscape:pageopacity="0"
     inkscape:pagecheckerboard="0"
     inkscape:deskcolor="#505050"
     inkscape:document-units="px"
     showgrid="false"
     inkscape:zoom="0.59800242"
     inkscape:cx="692.3049"
     inkscape:cy="222.40713"
     inkscape:window-width="1920"
     inkscape:window-height="1011"
     inkscape:window-x="1920"
     inkscape:window-y="32"
     inkscape:window-maximized="1"
     inkscape:current-layer="layer1" /><defs
     id="defs2" /><g
     inkscape:label="Layer 1"
     inkscape:groupmode="layer"
     id="layer1"><rect
       style="fill:#478cbf;stroke-width:1.04526;fill-opacity:1"
       id="rect111"
       width="384"
       height="384"
       x="64"
       y="64"
       ry="139.42804" /><rect
       style="fill:#478cbf;fill-opacity:1"
       id="rect1623"
       width="96"
       height="128"
       x="9.0101757"
       y="77.339249"
       ry="48"
       transform="rotate(-30)" /><rect
       style="fill:#478cbf;fill-opacity:1;stroke-width:1"
       id="rect1623-3"
       width="96.000198"
       height="128.00026"
       x="-434.3949"
       y="-178.66072"
       ry="48.000099"
       transform="matrix(-0.8660254,-0.5,-0.5,0.8660254,0,0)" /><rect
       style="fill:#478cbf;fill-opacity:1"
       id="rect1623-5"
       width="96"
       height="128"
       x="132.03323"
       y="67.757568"
       ry="48"
       transform="rotate(-15)" /><rect
       style="fill:#478cbf;fill-opacity:1;stroke-width:1"
       id="rect1748"
       width="95.999825"
       height="128.00032"
       x="-362.21219"
       y="-65.91024"
       ry="48.000122"
       transform="matrix(-0.9659255,-0.25882025,-0.25881785,0.96592615,0,0)" /><g
       id="g1601"
       transform="translate(144,144)"><rect
         style="fill:#ffffff;fill-opacity:1;stroke-width:0.755101"
         id="rect1374"
         width="128"
         height="128"
         x="-48"
         y="-16"
         ry="47.015411" /><g
         id="g1787"
         style="fill:#414042;fill-opacity:1"
         transform="translate(8,8)"><rect
           style="fill:#414042;fill-opacity:1;stroke-width:1.30344"
           id="rect1752"
           width="32"
           height="96"
           x="0"
           y="0"
           ry="16"
           rx="0" /><rect
           style="fill:#414042;fill-opacity:1;stroke-width:1.30344"
           id="rect1752-6"
           width="32"
           height="96"
           x="-64"
           y="-32"
           ry="16"
           rx="0"
           transform="rotate(-90)" /></g></g><path
       d="m 447.90193,303.38485 c 0,0 -0.63745,-3.41548 -1.01013,-3.38464 l -70.96719,5.97964 c -5.64684,0.47617 -10.03255,4.40894 -10.42874,9.35058 l -1.94961,24.40332 -54.90339,3.42061 -3.73449,-22.11664 c -0.83164,-4.91937 -5.75082,-8.62774 -11.44476,-8.62774 h -74.90175 c -5.69196,0 -10.61115,3.70837 -11.44278,8.62774 l -3.73645,22.11664 -54.90338,-3.42061 -1.94963,-24.40332 c -0.3962,-4.94336 -4.78189,-8.87612 -10.42875,-9.35229 l -71.002494,-5.97793 c -0.36678,-0.0308 -0.635493,3.38805 -1.002273,3.38805 L 64,316.80007 l 60.13246,8.46846 1.96924,24.62083 c 0.39817,4.98447 5.00353,9.01487 10.71509,9.37288 l 75.61375,4.71039 c 0.28636,0.0171 0.56883,0.0274 0.85126,0.0274 5.68215,0 10.5935,-3.71009 11.42513,-8.62947 l 3.84236,-22.75724 h 54.92888 l 3.84237,22.75724 c 0.82967,4.91767 5.74688,8.62774 11.4369,8.62774 0.27852,0 0.55702,-0.009 0.82966,-0.0256 l 75.62355,-4.7104 c 5.70963,-0.35801 10.31696,-4.3884 10.71512,-9.37287 L 387.89306,325.26852 448,316.76239 Z"
       fill="#ffffff"
       id="path275-5"
       style="stroke-width:1.83293" /><g
       id="g1621"
       transform="translate(336,144)"><rect
         style="fill:#ffffff;fill-opacity:1;stroke-width:0.755101"
         id="rect1609"
         width="128"
         height="128"
         x="-48"
         y="-16"
         ry="47.015411" /><g
         id="g1619"
         transform="translate(-8,8)"><circle
           style="fill:#414042;fill-opacity:1;stroke-width:0.725303"
           id="circle1611"
           cx="16"
           cy="16"
           r="16" /><circle
           style="fill:#414042;fill-opacity:1;stroke-width:0.725303"
           id="circle1613"
           cx="16"
           cy="80"
           r="16" /><circle
           style="fill:#414042;fill-opacity:1;stroke-width:0.725303"
           id="circle1615"
           cx="48"
           cy="48"
           r="16" /><circle
           style="fill:#414042;fill-opacity:1;stroke-width:0.725303"
           id="circle1617"
           cx="-16"
           cy="48"
           r="16" /></g></g><rect
       style="fill:#ffffff;fill-opacity:1;stroke-width:1.06425"
       id="rect1752-2"
       width="32"
       height="64"
       x="240"
       y="224"
       ry="16"
       rx="0" /></g></svg>
